<svg xmlns="http://www.w3.org/2000/svg" width="18" height="11" viewBox="0 0 18 11" fill="none">
  <path fill="white" fill-opacity="0.41" d="M0.545166 7.62798V3.65896C0.545166 3.59594 0.557897 3.53353 0.582632 3.4753C0.607366 3.41707 0.64362 3.36416 0.689324 3.31959C0.735028 3.27503 0.789287 3.23968 0.849002 3.21556C0.908717 3.19144 0.972718 3.17902 1.03735 3.17902H2.0009V4.05764H2.81339V3.29583C2.81339 3.16114 2.86827 3.03196 2.96594 2.93671C3.06362 2.84147 3.19609 2.78796 3.33423 2.78796H8.02954C8.02815 2.76174 8.02815 2.73546 8.02954 2.70924V1.92712H5.76652V1.00787C5.76652 0.873176 5.82139 0.743997 5.91907 0.648752C6.01674 0.553508 6.14922 0.5 6.28735 0.5H10.8707C11.0088 0.5 11.1413 0.553508 11.239 0.648752C11.3366 0.743997 11.3915 0.873176 11.3915 1.00787V1.92712H9.04777V2.7067C9.05047 2.73288 9.05047 2.75925 9.04777 2.78542H12.4124C12.5505 2.78542 12.683 2.83893 12.7806 2.93418C12.8783 3.02942 12.9332 3.1586 12.9332 3.2933V4.60868H14.2561C14.3942 4.60868 14.5267 4.66219 14.6244 4.75744C14.7221 4.85268 14.7769 4.98186 14.7769 5.11656V7.09979H15.7717V4.60106H17.2118V10.4086H15.7561V8.10284H14.7613V9.99213C14.7613 10.1268 14.7064 10.256 14.6088 10.3512C14.5111 10.4465 14.3786 10.5 14.2405 10.5H7.43579C7.31687 10.5005 7.2016 10.46 7.11027 10.3857L4.8811 8.60817H3.3186C3.18047 8.60817 3.04799 8.55467 2.95032 8.45942C2.85264 8.36418 2.79777 8.235 2.79777 8.1003V7.23184H2.0009V8.11046H1.03735C0.906578 8.10979 0.781394 8.05866 0.689165 7.96825C0.596936 7.87784 0.545164 7.7555 0.545166 7.62798Z"/>
</svg>
