<svg xmlns="http://www.w3.org/2000/svg" width="14" height="16" viewBox="0 0 14 16" fill="none">
  <path fill="white" fill-opacity="0.41" d="M0.211914 15.5V2.16667C0.211914 1.70833 0.375109 1.31597 0.701497 0.989583C1.02789 0.663194 1.42025 0.5 1.87858 0.5H6.87858C7.33691 0.5 7.72928 0.663194 8.05566 0.989583C8.38205 1.31597 8.54525 1.70833 8.54525 2.16667V8H9.37858C9.83691 8 10.2293 8.16319 10.5557 8.48958C10.8821 8.81597 11.0452 9.20833 11.0452 9.66667V13.4167C11.0452 13.6528 11.1251 13.8507 11.2848 14.0104C11.4446 14.1701 11.6425 14.25 11.8786 14.25C12.1147 14.25 12.3126 14.1701 12.4723 14.0104C12.6321 13.8507 12.7119 13.6528 12.7119 13.4167V7.41667C12.5869 7.48611 12.455 7.53125 12.3161 7.55208C12.1772 7.57292 12.0314 7.58333 11.8786 7.58333C11.2952 7.58333 10.8022 7.38194 10.3994 6.97917C9.99664 6.57639 9.79525 6.08333 9.79525 5.5C9.79525 5.05556 9.91678 4.65625 10.1598 4.30208C10.4029 3.94792 10.7258 3.69444 11.1286 3.54167L9.37858 1.79167L10.2536 0.916667L13.3369 3.91667C13.5452 4.125 13.7015 4.36806 13.8057 4.64583C13.9098 4.92361 13.9619 5.20833 13.9619 5.5V13.4167C13.9619 14 13.7605 14.4931 13.3577 14.8958C12.955 15.2986 12.4619 15.5 11.8786 15.5C11.2952 15.5 10.8022 15.2986 10.3994 14.8958C9.99664 14.4931 9.79525 14 9.79525 13.4167V9.25H8.54525V15.5H0.211914ZM1.87858 6.33333H6.87858V2.16667H1.87858V6.33333ZM11.8786 6.33333C12.1147 6.33333 12.3126 6.25347 12.4723 6.09375C12.6321 5.93403 12.7119 5.73611 12.7119 5.5C12.7119 5.26389 12.6321 5.06597 12.4723 4.90625C12.3126 4.74653 12.1147 4.66667 11.8786 4.66667C11.6425 4.66667 11.4446 4.74653 11.2848 4.90625C11.1251 5.06597 11.0452 5.26389 11.0452 5.5C11.0452 5.73611 11.1251 5.93403 11.2848 6.09375C11.4446 6.25347 11.6425 6.33333 11.8786 6.33333Z"/>
</svg>
