<svg xmlns="http://www.w3.org/2000/svg" width="16" height="18" viewBox="0 0 16 18" fill="none">
  <path fill="white" fill-opacity="0.41" d="M4.96187 4.00002C4.50354 4.00002 4.11118 3.83683 3.78479 3.51044C3.4584 3.18405 3.29521 2.79169 3.29521 2.33335C3.29521 1.87502 3.4584 1.48266 3.78479 1.15627C4.11118 0.829881 4.50354 0.666687 4.96187 0.666687C5.42021 0.666687 5.81257 0.829881 6.13896 1.15627C6.46535 1.48266 6.62854 1.87502 6.62854 2.33335C6.62854 2.79169 6.46535 3.18405 6.13896 3.51044C5.81257 3.83683 5.42021 4.00002 4.96187 4.00002ZM9.54521 15.6667H4.17021C3.71187 15.6667 3.29173 15.5035 2.90979 15.1771C2.52785 14.8507 2.28826 14.4584 2.19104 14L0.37854 4.83335H2.08687L3.92021 14H9.54521V15.6667ZM14.1285 17.3334L11.7119 13.1667H5.92021C5.51743 13.1667 5.16673 13.0452 4.86812 12.8021C4.56951 12.559 4.37854 12.2361 4.29521 11.8334L3.37854 7.37502C3.22576 6.70835 3.38201 6.11808 3.84729 5.60419C4.31257 5.0903 4.87854 4.83335 5.54521 4.83335C6.03132 4.83335 6.47229 4.97919 6.86812 5.27085C7.26396 5.56252 7.51743 5.95835 7.62854 6.45835L8.54521 10.6667H11.2535C11.5452 10.6667 11.816 10.7431 12.066 10.8959C12.316 11.0486 12.5174 11.25 12.6702 11.5L15.5869 16.5L14.1285 17.3334Z"/>
</svg>
