<svg xmlns="http://www.w3.org/2000/svg" width="14" height="15" viewBox="0 0 14 15" fill="none">
  <path fill="white" fill-opacity="0.41" d="M11.8786 0.333313C10.9619 0.333313 10.2119 1.04086 10.2119 1.90564C10.2119 2.4874 10.5452 2.99055 11.0452 3.27356V6.62262H7.71191V3.27356C8.21191 3.00627 8.54525 2.4874 8.54525 1.90564C8.54525 1.04086 7.79525 0.333313 6.87858 0.333313C5.96191 0.333313 5.21191 1.04086 5.21191 1.90564C5.21191 2.4874 5.54525 2.99055 6.04525 3.27356V6.62262H2.71191V3.27356C3.21191 3.00627 3.54525 2.4874 3.54525 1.90564C3.54525 1.04086 2.79525 0.333313 1.87858 0.333313C0.961914 0.333313 0.211914 1.04086 0.211914 1.90564C0.211914 2.4874 0.545247 2.99055 1.04525 3.27356V11.5597C0.545247 11.827 0.211914 12.3459 0.211914 12.9277C0.211914 13.7924 0.961914 14.5 1.87858 14.5C2.79525 14.5 3.54525 13.7924 3.54525 12.9277C3.54525 12.3459 3.21191 11.8427 2.71191 11.5597V8.19495H6.04525V11.544C5.54525 11.8113 5.21191 12.3302 5.21191 12.9119C5.21191 13.7767 5.96191 14.4843 6.87858 14.4843C7.79525 14.4843 8.54525 13.7767 8.54525 12.9119C8.54525 12.3302 8.21191 11.827 7.71191 11.544V8.19495H12.7119V3.27356C13.2119 3.00627 13.5452 2.4874 13.5452 1.90564C13.5452 1.04086 12.7952 0.333313 11.8786 0.333313Z"/>
</svg>
