<svg width="229" height="53" viewBox="0 0 229 53" fill="none" xmlns="http://www.w3.org/2000/svg">
<g clip-path="url(#clip0_415_5746)">
<path d="M32.9022 19.8649L34.8462 14.3367L34.8554 14.3092L34.6388 8.03565L37.0659 0L32.0064 5.36558L31.6444 7.13885L24.5096 14.0662H14.0886L6.95379 7.13885L6.59182 5.36558L1.53128 0L3.95936 8.03565L3.74482 14.2807V14.3092L5.70213 19.8802L0.0264364 35.2021L0 35.2723L10.5227 52.0594L11.1013 42.7385L16.3103 39.619L16.9061 41.1056H21.6911L22.2869 39.618L27.5071 42.7395L28.0856 52.0604L38.6094 35.2733L32.9032 19.8659L32.9022 19.8649ZM17.4185 40.3481L16.8736 38.9846L19.2996 37.2296L21.7256 38.9846L21.1807 40.3481H17.4196H17.4185ZM5.47335 5.94718L5.84143 7.74892L13.0596 14.7556L6.73112 19.1572L4.96293 14.1242L5.17747 7.90245V7.87703L4.18102 4.57553L5.47437 5.94819L5.47335 5.94718ZM16.1059 29.7532L11.9177 35.0455L6.72298 31.9352V20.7719L12.1709 25.986L11.9289 27.502L13.7815 29.2753H15.6046L16.1049 29.7542L16.1059 29.7532ZM9.93196 42.0278L9.54761 48.221L1.34419 35.134L5.9665 22.6519V32.3643L11.7083 35.803L12.6305 37.9495L15.2386 38.8473L9.99907 41.9861L9.93094 42.0278H9.93196ZM16.2553 30.7842L16.3174 34.6785L16.417 34.9164L18.6753 36.7476L16.3489 38.4294L16.3316 38.4243L16.2309 38.2545L16.0886 38.3389L13.1938 37.3435L12.4444 35.5997L16.2543 30.7842H16.2553ZM6.94159 19.932L13.6351 15.2782H18.9214V24.1649L16.5055 29.0862L6.94159 19.932ZM16.9966 29.7918L19.2996 25.1115L21.6047 29.802L21.5457 33.3709H17.0545L16.9966 29.7918ZM32.7578 7.74892L33.1258 5.94718L34.4192 4.57452L33.4217 7.87602L33.6363 14.1221L31.8701 19.1491L25.5406 14.7546L32.7242 7.78044L32.7578 7.7479V7.74892ZM22.1405 34.9683L22.2666 34.7425L22.3469 30.774L26.1649 35.5987L25.4064 37.3435L22.5116 38.3389L22.3683 38.2545L22.2676 38.4243L22.2503 38.4294L19.9249 36.7476L22.1415 34.9683H22.1405ZM26.6937 35.0486L22.4954 29.7511L22.9936 29.2743H24.8167L26.6693 27.501L26.4273 25.985L31.8894 20.7556V31.9342L26.6926 35.0466L26.6937 35.0486ZM25.9677 37.9505L26.898 35.8081L32.5737 32.41L32.6469 32.3653V22.6662L37.2652 35.135L29.0607 48.2221L28.6815 42.1081L28.6774 42.0288L23.3596 38.8483L25.9667 37.9505H25.9677ZM22.0968 29.0841L19.6789 24.1649V15.2782H24.9407L31.6627 19.928L22.0968 29.0841Z" fill="#E0B263"/>
</g>
<g clip-path="url(#clip1_415_5746)">
<path d="M66.9139 16.4485C66.9139 14.9456 66.9003 13.4394 66.919 11.9366C66.9292 11.1724 67.1811 10.5103 67.9844 10.2278C68.2312 10.141 68.5052 10.0916 68.7673 10.0899C71.0325 10.0797 73.2961 10.0712 75.5613 10.0899C76.7289 10.0984 77.3909 10.7299 77.3994 11.8974C77.4232 14.9201 77.4232 17.9445 77.3994 20.9672C77.3909 22.1585 76.7323 22.7848 75.5324 22.7934C73.2842 22.8087 71.0342 22.8087 68.786 22.7934C67.5895 22.7848 66.9445 22.1568 66.9241 20.962C66.8951 19.4592 66.9156 17.953 66.9156 16.4502M69.1042 16.4416C69.1042 17.6347 69.1008 18.8261 69.1042 20.0175C69.1042 20.6131 69.271 20.8072 69.8412 20.8106C71.3525 20.8225 72.8638 20.8242 74.3734 20.8072C75.0474 20.8004 75.221 20.5927 75.221 19.9102C75.221 17.6364 75.221 15.3626 75.221 13.0888C75.221 12.2531 75.0474 12.071 74.193 12.0676C72.7923 12.0608 71.3916 12.0625 69.9909 12.0676C69.2659 12.071 69.1042 12.2378 69.1025 12.9594C69.1025 14.1202 69.1025 15.2792 69.1025 16.4399" fill="white"/>
<path d="M91.9509 20.814C93.6937 20.814 95.3463 20.8293 96.9988 20.8072C97.6677 20.7987 98.0234 20.426 98.1 19.7537C98.1289 19.4882 98.1187 19.221 98.1187 18.9538C98.1187 17.1361 98.1187 15.315 98.1221 13.4973C98.1221 12.4183 97.7664 12.066 96.6721 12.066C94.5617 12.066 92.453 12.066 90.3426 12.066H89.8014V10.1036C89.9478 10.0951 90.0856 10.0781 90.2218 10.0781C92.4581 10.0781 94.6944 10.0696 96.929 10.0832C97.3664 10.0866 97.814 10.1121 98.2378 10.2125C99.5585 10.524 100.321 11.5315 100.343 13.0752C100.377 15.3184 100.384 17.5616 100.343 19.8048C100.307 21.6939 99.1926 22.773 97.3069 22.7917C94.8204 22.8138 92.3322 22.7951 89.8082 22.7951V13.0378H91.9526V20.814H91.9509Z" fill="white"/>
<path d="M116.042 13.448V22.7645H113.991V10.0781C114.644 10.0781 115.284 10.0611 115.923 10.0917C116.057 10.0985 116.214 10.2483 116.311 10.3708C118.355 12.9952 120.395 15.6248 122.434 18.2526C122.557 18.4092 122.681 18.564 122.883 18.821V10.1172H124.96V22.8002C124.512 22.8002 124.068 22.8513 123.646 22.7798C123.445 22.7441 123.26 22.4956 123.111 22.3084C120.829 19.4525 118.555 16.5881 116.278 13.7271C116.229 13.6658 116.176 13.6079 116.042 13.448Z" fill="white"/>
<path d="M161.481 18.8227V10.1172H163.529V22.8002C163.088 22.8002 162.637 22.824 162.191 22.7848C162.057 22.7712 161.919 22.5993 161.817 22.4717C159.509 19.5767 157.206 16.6765 154.9 13.7781C154.834 13.6964 154.759 13.6198 154.621 13.4683V22.7661H152.56V10.0797C153.23 10.0797 153.872 10.061 154.512 10.095C154.658 10.1035 154.823 10.2806 154.929 10.4184C157.002 13.0803 159.066 15.7472 161.134 18.4125C161.219 18.5214 161.313 18.6253 161.48 18.8244" fill="white"/>
<path d="M64.6214 10.1037V12.0644H64.0938C61.9851 12.0644 59.8764 12.0644 57.7677 12.0644C57.0665 12.0644 56.9372 12.1954 56.9372 12.8847C56.9372 15.2828 56.9372 17.6809 56.9372 20.0789C56.9372 20.4568 56.9866 20.8006 57.4648 20.804C59.1446 20.8125 60.8261 20.8074 62.5348 20.8074V17.349H59.6671V15.5875H64.7235V22.7799C64.5788 22.7884 64.4427 22.8038 64.3065 22.8038C61.8677 22.8038 59.4271 22.8038 56.9883 22.8038C56.8793 22.8038 56.7687 22.8004 56.6581 22.7987C55.431 22.7663 54.7587 22.1672 54.7468 20.9537C54.7162 17.943 54.7162 14.9339 54.7451 11.9231C54.757 10.7096 55.431 10.0952 56.6598 10.0867C59.2246 10.0731 61.7894 10.0782 64.3542 10.0782C64.4308 10.0782 64.5074 10.0918 64.6214 10.1037Z" fill="white"/>
<path d="M215.32 16.8451C216.55 17.2008 216.758 17.4816 216.758 18.6526V22.7713H214.563V21.6617C214.563 20.6116 214.568 19.5614 214.563 18.5096C214.563 18.222 214.535 17.8901 214.151 17.8867C212.33 17.8714 210.509 17.8799 208.652 17.8799V22.7628H206.478V13.0412H208.616V16.1116H209.789C211.048 16.1116 212.308 16.115 213.565 16.1116C214.278 16.1082 214.394 15.9856 214.392 15.2929C214.392 14.4777 214.392 13.6625 214.392 12.8455C214.392 12.2005 214.275 12.0694 213.625 12.0677C211.39 12.0609 209.154 12.0643 206.919 12.0643H206.47V10.1003C206.627 10.0917 206.78 10.0781 206.931 10.0781C209.372 10.0781 211.812 10.0781 214.251 10.0781C214.44 10.0781 214.629 10.0781 214.816 10.09C215.858 10.1479 216.489 10.6704 216.557 11.7035C216.636 12.9051 216.62 14.1135 216.596 15.3202C216.581 16.0792 216.179 16.6119 215.318 16.8468" fill="white"/>
<path d="M228.828 10.0985V12.0643H228.302C226.146 12.0643 223.99 12.0643 221.833 12.0643C221.185 12.0643 221.095 12.1562 221.091 12.7944C221.088 13.4531 221.088 14.1117 221.091 14.7721C221.095 15.378 221.168 15.458 221.762 15.458C223.477 15.4614 225.193 15.458 226.907 15.4614C228.449 15.4614 229.01 16.0247 228.997 17.5667C228.988 18.7887 229 20.0124 228.925 21.2327C228.869 22.162 228.323 22.7509 227.388 22.7662C224.575 22.8138 221.76 22.7849 218.914 22.7849V20.8174H219.439C221.61 20.8174 223.784 20.8208 225.954 20.8174C226.667 20.8174 226.764 20.7119 226.764 19.9971C226.764 19.3248 226.764 18.6491 226.764 17.9752C226.764 17.3488 226.667 17.245 226.022 17.2433C224.291 17.2399 222.56 17.2433 220.827 17.2433C219.425 17.2399 218.868 16.6698 218.882 15.2588C218.892 14.1304 218.863 13.0003 218.911 11.8736C218.959 10.6789 219.571 10.1019 220.77 10.0934C223.365 10.0764 225.964 10.0849 228.559 10.0832C228.634 10.0832 228.711 10.0951 228.825 10.1036" fill="white"/>
<path d="M204.872 22.7832H202.69C202.508 22.208 202.334 21.6123 202.125 21.0302C202.081 20.906 201.917 20.7392 201.807 20.7375C200.062 20.7188 198.316 20.7239 196.543 20.7239C196.352 21.3178 196.148 21.8897 195.984 22.4752C195.91 22.7373 195.785 22.8173 195.521 22.8088C194.941 22.7917 194.362 22.8037 193.723 22.8037C194.112 21.6378 194.482 20.5281 194.856 19.4202C195.857 16.4587 196.866 13.4973 197.851 10.5308C197.972 10.1666 198.141 10.0509 198.517 10.0679C199.21 10.1002 199.902 10.0628 200.595 10.09C200.729 10.0968 200.935 10.2449 200.976 10.3691C202.273 14.4181 203.555 18.4739 204.836 22.5296C204.86 22.6011 204.86 22.6811 204.874 22.7815M201.471 18.8177C200.784 16.5507 200.11 14.3177 199.432 12.083C199.4 12.0796 199.368 12.0762 199.335 12.0728C198.61 14.3109 197.884 16.5507 197.149 18.8177H201.471Z" fill="white"/>
<path d="M170.903 17.2943C169.775 19.044 168.68 20.7238 167.607 22.4172C167.424 22.7049 167.234 22.8274 166.892 22.8104C166.296 22.7832 165.697 22.8019 165.003 22.8019C165.125 22.6079 165.205 22.47 165.295 22.3406C166.625 20.3817 167.95 18.4193 169.297 16.4706C169.492 16.1881 169.468 16.006 169.279 15.7422C168.063 14.0283 166.861 12.3042 165.654 10.5818C165.557 10.4422 165.469 10.2993 165.324 10.0797C166.122 10.0797 166.849 10.0627 167.578 10.095C167.7 10.1002 167.84 10.2908 167.928 10.4235C168.869 11.8481 169.804 13.2794 170.74 14.7091C170.833 14.852 170.932 14.9916 171.056 15.1737C171.17 15.0154 171.269 14.8861 171.358 14.7516C172.307 13.3118 173.262 11.8753 174.198 10.4286C174.361 10.1767 174.523 10.0559 174.835 10.0678C175.43 10.095 176.026 10.0763 176.695 10.0763C176.584 10.255 176.511 10.3844 176.428 10.5052C175.178 12.311 173.933 14.1202 172.67 15.9158C172.479 16.1847 172.471 16.3702 172.661 16.6476C173.944 18.5044 175.209 20.3749 176.479 22.2453C176.582 22.3968 176.683 22.5551 176.843 22.7968C176.011 22.7968 175.253 22.8104 174.496 22.7832C174.389 22.7798 174.266 22.5925 174.19 22.47C173.197 20.9076 172.212 19.3435 171.223 17.7794C171.133 17.6364 171.036 17.4952 170.903 17.296" fill="white"/>
<path d="M192.511 20.8157V22.7747C192.352 22.7849 192.203 22.8019 192.051 22.8019C189.88 22.8019 187.708 22.8019 185.536 22.8019C185.441 22.8019 185.346 22.8019 185.252 22.7985C183.948 22.7679 183.317 22.1551 183.3 20.848C183.281 19.2669 183.293 17.6824 183.291 16.0979C183.291 14.7959 183.285 13.4956 183.295 12.1936C183.305 10.6908 183.904 10.0883 185.422 10.0832C187.704 10.0729 189.987 10.0797 192.267 10.0832C192.315 10.0832 192.359 10.0968 192.441 10.1087V12.0659H191.944C190.103 12.0659 188.261 12.0659 186.42 12.0693C185.616 12.0727 185.483 12.2157 185.483 13.0003C185.487 15.2741 185.483 17.5479 185.483 19.8218C185.483 20.6915 185.603 20.8174 186.498 20.8174C188.324 20.8208 190.148 20.8174 191.975 20.8174H192.506L192.511 20.8157Z" fill="white"/>
<path d="M104.627 17.4851V20.8056H111.678V22.7764H102.443V13.0361H104.593V15.635H109.896V17.4851H104.627Z" fill="white"/>
<path d="M140.175 10.0781C140.922 10.0781 141.582 10.0577 142.238 10.0951C142.391 10.1036 142.587 10.2738 142.673 10.4236C143.596 11.9877 144.503 13.562 145.412 15.1346C145.49 15.2691 145.568 15.4018 145.679 15.5873C145.791 15.412 145.887 15.2742 145.968 15.1295C146.879 13.5586 147.793 11.9894 148.691 10.4083C148.834 10.1564 148.993 10.0594 149.28 10.0696C149.862 10.0917 150.444 10.0764 151.111 10.0764C151.001 10.2687 150.923 10.4117 150.839 10.5495C149.547 12.6974 148.249 14.8402 146.971 16.9948C146.836 17.2229 146.756 17.5173 146.753 17.7812C146.732 19.284 146.743 20.7885 146.743 22.293V22.7764H144.561C144.552 22.5943 144.537 22.4275 144.537 22.2607C144.534 20.8191 144.554 19.3776 144.523 17.936C144.515 17.582 144.416 17.1906 144.237 16.8859C142.99 14.767 141.712 12.6668 140.444 10.5597C140.366 10.4287 140.296 10.2925 140.173 10.073" fill="white"/>
<path d="M132.351 10.0968H134.542V20.814H140.762V22.7662H132.351V10.0968Z" fill="white"/>
<path d="M81.7342 20.8072H87.9514V22.7712H79.583V10.1155H81.7342V20.8072Z" fill="white"/>
<path d="M111.674 10.1172H102.433V12.0353H111.674V10.1172Z" fill="white"/>
<path d="M87.7336 37.6702C88.5301 37.9289 88.6697 38.1247 88.6697 38.9212V41.9728H87.7881V40.9142C87.7881 40.1959 87.7915 39.4794 87.7881 38.7612C87.7881 38.3697 87.5975 38.0991 87.2486 38.0957C85.5909 38.0787 83.9332 38.0872 82.2381 38.0872V41.9677H81.377V34.2323H82.2279V37.3316C82.3658 37.3401 82.4645 37.352 82.5649 37.352C83.9383 37.352 85.3118 37.3554 86.6852 37.352C87.5498 37.352 87.7047 37.192 87.7047 36.341C87.7047 35.7028 87.7081 35.0645 87.7013 34.428C87.6928 33.8221 87.5022 33.5838 86.8912 33.5651C85.7815 33.5277 84.6702 33.5379 83.5605 33.5328C82.8423 33.5294 82.1224 33.5328 81.3787 33.5328V32.7499H86.9525C87.0427 32.7499 87.1346 32.7533 87.2265 32.755C88.0655 32.7856 88.554 33.2366 88.5812 34.0689C88.6084 34.9233 88.5999 35.7777 88.5863 36.632C88.5778 37.1086 88.2902 37.4456 87.7302 37.6719" fill="white"/>
<path d="M63.042 35.8815V35.0986C63.1526 35.0935 63.253 35.0816 63.3517 35.0816C65.0349 35.0816 66.7164 35.0782 68.3996 35.0816C69.3663 35.0816 69.705 35.4135 69.7084 36.3734C69.7135 38.2285 69.7084 40.0837 69.7084 41.9711C69.5961 41.9796 69.4957 41.9932 69.3987 41.9932C67.6133 41.9932 65.828 41.9967 64.0427 41.9932C63.1169 41.9898 62.7714 41.6597 62.7714 40.7389C62.7714 40.0581 62.7799 39.3739 62.8326 38.6949C62.8684 38.2336 63.0675 38.0736 63.5304 37.997C63.5985 37.9851 63.6649 37.9647 63.7329 37.9647C65.1864 37.9647 66.6381 37.9647 68.1171 37.9647V38.7017H67.1181C66.1667 38.7017 65.217 38.6983 64.2674 38.7017C63.8112 38.7017 63.6734 38.8344 63.6632 39.2922C63.6547 39.6905 63.6632 40.0888 63.6632 40.487C63.6632 41.0504 63.8266 41.2223 64.4001 41.224C65.6817 41.2308 66.9632 41.2274 68.2464 41.2274H68.8268V40.824C68.8268 39.4692 68.8268 38.1128 68.8268 36.758C68.8268 36.0194 68.6992 35.8883 67.9469 35.8866C66.4475 35.8832 64.9481 35.8866 63.447 35.8866H63.0403L63.042 35.8815Z" fill="white"/>
<path d="M118.36 41.2205V36.6405C118.36 36.0585 118.203 35.8866 117.607 35.8832C116.074 35.878 114.539 35.8832 113.005 35.8832H112.583V35.102C112.636 35.0934 112.68 35.0815 112.725 35.0815C114.532 35.0815 116.341 35.0747 118.15 35.0866C118.812 35.0917 119.212 35.4202 119.223 36.0414C119.248 38.0089 119.231 39.9781 119.231 41.9762C119.11 41.983 119 41.9932 118.889 41.9932C117.126 41.9932 115.364 41.9966 113.601 41.9932C112.638 41.9932 112.301 41.6613 112.304 40.6946C112.308 40.024 112.316 39.3517 112.367 38.6829C112.401 38.237 112.602 38.0736 113.041 37.997C113.108 37.9868 113.176 37.9646 113.242 37.9646C114.706 37.9612 116.169 37.9612 117.655 37.9612V38.6982H117.294C116.139 38.6982 114.981 38.6982 113.826 38.6982C113.344 38.6982 113.205 38.8292 113.196 39.2973C113.188 39.7194 113.189 40.1415 113.196 40.5618C113.205 41.0112 113.359 41.2069 113.805 41.212C115.303 41.2273 116.801 41.2188 118.36 41.2188" fill="white"/>
<path d="M97.1674 38.8922H91.8625V38.2046H96.2807C96.2807 37.5613 96.2994 36.9605 96.2722 36.3614C96.2585 36.0482 96.056 35.8849 95.719 35.8849C94.4256 35.89 93.1321 35.878 91.837 35.8849C91.3111 35.8883 91.1562 36.0636 91.1562 36.5997C91.1528 37.9 91.1528 39.1969 91.1562 40.4955C91.1562 40.5976 91.1766 40.6997 91.197 40.8001C91.2413 41.0231 91.3638 41.1694 91.6072 41.1865C91.7672 41.1967 91.9255 41.2222 92.0854 41.2222C93.5508 41.2256 95.0161 41.2256 96.4815 41.2256H96.8798V41.9728C96.7896 41.9796 96.6891 41.9932 96.5921 41.9932C94.9328 41.9932 93.2717 41.9966 91.6123 41.9898C91.4098 41.9898 91.2021 41.9643 91.003 41.9234C90.5962 41.8383 90.3801 41.5558 90.3171 41.1643C90.2746 40.8971 90.2627 40.6214 90.261 40.3491C90.2559 39.1067 90.2576 37.8659 90.2576 36.6235C90.2576 36.5214 90.2542 36.4193 90.261 36.3172C90.3171 35.4032 90.6558 35.0832 91.58 35.0815C93.0453 35.0781 94.509 35.0781 95.9743 35.0815C96.7691 35.0815 97.1163 35.3573 97.1521 36.135C97.1946 37.0422 97.1623 37.9527 97.1623 38.8922" fill="white"/>
<path d="M99.7236 41.9763H98.8539V35.1037H99.7168V35.5667C100.117 35.0714 100.651 35.0731 101.196 35.0782C102.305 35.0867 103.415 35.0782 104.525 35.0816C104.685 35.0816 104.846 35.085 105.005 35.1105C105.687 35.2127 105.968 35.5224 105.976 36.2355C105.99 37.4524 105.983 38.671 105.985 39.8914V41.9643H105.117C105.112 41.8435 105.103 41.7329 105.103 41.6222C105.103 39.9594 105.103 38.2983 105.103 36.6355C105.103 36.0619 104.957 35.8917 104.383 35.8883C103.068 35.8798 101.752 35.8798 100.435 35.8883C99.8853 35.8917 99.7253 36.0619 99.7236 36.6134C99.7236 38.2745 99.7236 39.9373 99.7236 41.5984V41.9797V41.9763Z" fill="white"/>
<path d="M61.2465 41.2069V41.9915H60.9197C59.3863 41.9915 57.8529 41.9915 56.3194 41.9881C56.1033 41.9881 55.882 41.9745 55.6744 41.9269C55.0379 41.7771 54.7298 41.3329 54.7281 40.5364C54.7213 38.7612 54.7213 36.9844 54.7281 35.2075C54.7315 34.731 54.723 34.2493 54.7894 33.7796C54.8796 33.1482 55.2285 32.7839 55.8565 32.772C57.6384 32.738 59.422 32.7601 61.2261 32.7601V33.5124C61.0882 33.5192 60.9572 33.5294 60.8244 33.5294C59.4969 33.5328 58.1694 33.5294 56.8419 33.5294C55.7867 33.5328 55.6148 33.7064 55.6148 34.7633C55.6148 36.5283 55.6148 38.2932 55.6148 40.0581C55.6148 40.2045 55.6114 40.356 55.6267 40.5023C55.6727 40.9261 55.8803 41.1559 56.3109 41.1644C57.7627 41.1899 59.2161 41.195 60.6695 41.2052C60.8499 41.2052 61.0304 41.2052 61.2482 41.2052" fill="white"/>
<path d="M110.839 41.2222V41.9217C110.032 41.9217 109.227 41.9523 108.426 41.9081C108.048 41.8893 107.844 41.5779 107.765 41.2154C107.729 41.0503 107.702 40.8784 107.701 40.7099C107.697 38.2625 107.697 35.815 107.701 33.3676C107.701 33.3115 107.707 33.257 107.712 33.1787H108.587V35.0679H110.902V35.815H108.597V36.1725C108.597 37.6072 108.597 39.0403 108.597 40.475C108.597 41.0298 108.766 41.2051 109.334 41.2171C109.825 41.229 110.316 41.2205 110.844 41.2205" fill="white"/>
<path d="M76.2473 35.0799C76.3074 35.6143 76.0918 35.8815 75.6006 35.8815C74.7309 35.8815 73.8612 35.8764 72.9932 35.8849C72.4588 35.89 72.3056 36.0568 72.3056 36.5929C72.3056 38.254 72.3056 39.9168 72.3056 41.5779V41.9694H71.4427V35.1071H72.292C72.3005 35.2586 72.309 35.4083 72.3209 35.633C72.68 35.1258 73.1515 35.0713 73.6587 35.0782C74.5147 35.0918 75.3725 35.0816 76.2439 35.0816" fill="white"/>
<path d="M121.847 32.2052H120.996V41.9744H121.847V32.2052Z" fill="white"/>
</g>
<defs>
<clipPath id="clip0_415_5746">
<rect width="38.6094" height="52.0594" fill="white"/>
</clipPath>
<clipPath id="clip1_415_5746">
<rect width="174.277" height="31.9271" fill="white" transform="translate(54.723 10.0662)"/>
</clipPath>
</defs>
</svg>
